# xmcd CD database file
# Copyright (C) 1995-1998 Ti Kan
#
# Track frame offsets:
#	150
#	14915
#	34427
#	52562
#	74425
#	96117
#	111535
#	131422
#	147975
#	166462
#	182915
#	199347
#	215717
#	232907
#	249360
#	267480
#	285222
#	297930
#	317187
#
# Disc length: 4460 seconds
#
# Revision: 1
# Processed by: cddbd v1.4PL0 Copyright (c) Steve Scherf et al.
# Submitted via: CDex 1.30
#
DISCID=2b116a13
DTITLE=江蕙 - 江蕙
DYEAR=2002
DGENRE=Country
TTITLE0=音軌 1
TTITLE1=音軌 2
TTITLE2=音軌 3
TTITLE3=音軌 4
TTITLE4=音軌 5
TTITLE5=音軌 6
TTITLE6=音軌 7
TTITLE7=音軌 8
TTITLE8=音軌 9
TTITLE9=音軌 10
TTITLE10=音軌 11
TTITLE11=音軌 12
TTITLE12=音軌 13
TTITLE13=音軌 14
TTITLE14=音軌 15
TTITLE15=音軌 16
TTITLE16=音軌 17
TTITLE17=音軌 18
TTITLE18=音軌 19
EXTD=\nYEAR: 2002  ID3G:   2
EXTT0=
EXTT1=
EXTT2=
EXTT3=
EXTT4=
EXTT5=
EXTT6=
EXTT7=
EXTT8=
EXTT9=
EXTT10=
EXTT11=
EXTT12=
EXTT13=
EXTT14=
EXTT15=
EXTT16=
EXTT17=
EXTT18=
PLAYORDER=
